# xmcd
# Copyright (C) 1995-1998 Ti Kan
#
# Track frame offsets:
#       150
#       16651
#       30077
#       55279
#       68781
#       86107
#       110334
#       132985
#
# Disc length: 2543 seconds
#
# Revision: 0
# Processed by: cddbd v1.5.2PL0 Copyright (c) Steve Scherf et al.
# Submitted via: CD-Import v1.0
#
DISCID=5c09ed08
DTITLE=Ralph and The Therapists - Angels Cry
DYEAR=10
DGENRE=
TTITLE0=Café Racer
TTITLE1=Cheese Meat Honey Milk
TTITLE2=You Won't Break It
TTITLE3=The Way You Walk
TTITLE4=Mirror On The Wall
TTITLE5=Angels Cry
TTITLE6=Don't Ever Let Me Fall
TTITLE7=Move On
EXTD=
EXTT0=
EXTT1=
EXTT2=
EXTT3=
EXTT4=
EXTT5=
EXTT6=
EXTT7=
PLAYORDER=
